<svg width="12" height="12" viewBox="0 0 12 12" fill="currentColor" xmlns="http://www.w3.org/2000/svg">
<path fill-rule="evenodd" clip-rule="evenodd" d="M6 1.875C6.20711 1.875 6.375 2.04289 6.375 2.25V5.625H9.75C9.95711 5.625 10.125 5.79289 10.125 6C10.125 6.20711 9.95711 6.375 9.75 6.375H6.375V9.75C6.375 9.95711 6.20711 10.125 6 10.125C5.79289 10.125 5.625 9.95711 5.625 9.75V6.375H2.25C2.04289 6.375 1.875 6.20711 1.875 6C1.875 5.79289 2.04289 5.625 2.25 5.625H5.625V2.25C5.625 2.04289 5.79289 1.875 6 1.875Z" fill="currentColor"/>
</svg>
