<svg width="24" height="25" viewBox="0 0 24 25" fill="currentColor" xmlns="http://www.w3.org/2000/svg">
<path fill-rule="evenodd" clip-rule="evenodd" d="M8 6.5C8 5.67157 8.67157 5 9.5 5C10.3284 5 11 5.67157 11 6.5C11 7.32843 10.3284 8 9.5 8C8.67157 8 8 7.32843 8 6.5ZM8 12.5C8 11.6716 8.67157 11 9.5 11C10.3284 11 11 11.6716 11 12.5C11 13.3284 10.3284 14 9.5 14C8.67157 14 8 13.3284 8 12.5ZM8 18.5C8 17.6716 8.67157 17 9.5 17C10.3284 17 11 17.6716 11 18.5C11 19.3284 10.3284 20 9.5 20C8.67157 20 8 19.3284 8 18.5Z" fill="currentColor"/>
<path fill-rule="evenodd" clip-rule="evenodd" d="M13 6.5C13 5.67157 13.6716 5 14.5 5C15.3284 5 16 5.67157 16 6.5C16 7.32843 15.3284 8 14.5 8C13.6716 8 13 7.32843 13 6.5ZM13 12.5C13 11.6716 13.6716 11 14.5 11C15.3284 11 16 11.6716 16 12.5C16 13.3284 15.3284 14 14.5 14C13.6716 14 13 13.3284 13 12.5ZM13 18.5C13 17.6716 13.6716 17 14.5 17C15.3284 17 16 17.6716 16 18.5C16 19.3284 15.3284 20 14.5 20C13.6716 20 13 19.3284 13 18.5Z" fill="currentColor"/>
</svg>
