<svg width="20" height="20" viewBox="0 0 20 20" fill="currentColor" xmlns="http://www.w3.org/2000/svg">
<path fill-rule="evenodd" clip-rule="evenodd" d="M9.23201 1.875C8.4682 1.875 7.81634 2.42721 7.69077 3.18063L7.54188 4.07394C7.52509 4.1747 7.44661 4.2915 7.29469 4.36456C7.00797 4.50244 6.73349 4.6615 6.47326 4.83967C6.33452 4.93466 6.19425 4.94433 6.0985 4.90846L5.24918 4.59028C4.53392 4.32231 3.72976 4.61074 3.34786 5.27222L2.57954 6.60298C2.19763 7.26446 2.34993 8.10509 2.93962 8.59055L3.64006 9.16717C3.71892 9.23209 3.78067 9.35819 3.76809 9.5256C3.75631 9.6823 3.75033 9.84051 3.75033 10C3.75033 10.1595 3.75632 10.3178 3.7681 10.4746C3.78069 10.642 3.71893 10.7681 3.64008 10.833L2.93962 11.4097C2.34993 11.8951 2.19763 12.7357 2.57954 13.3972L3.34786 14.728C3.72976 15.3895 4.53392 15.6779 5.24918 15.4099L6.09869 15.0917C6.19444 15.0558 6.3347 15.0655 6.47343 15.1605C6.73361 15.3386 7.00804 15.4976 7.29469 15.6354C7.44661 15.7085 7.52509 15.8253 7.54188 15.9261L7.69077 16.8194C7.81634 17.5728 8.4682 18.125 9.23201 18.125H10.7686C11.5325 18.125 12.1843 17.5728 12.3099 16.8194L12.4588 15.9261C12.4756 15.8253 12.554 15.7085 12.706 15.6354C12.9927 15.4976 13.2672 15.3385 13.5274 15.1603C13.6661 15.0653 13.8064 15.0557 13.9022 15.0915L14.7515 15.4097C15.4667 15.6777 16.2709 15.3893 16.6528 14.7278L17.4211 13.397C17.803 12.7355 17.6507 11.8949 17.061 11.4094L16.3606 10.8328C16.2817 10.7679 16.22 10.6418 16.2326 10.4744C16.2443 10.3177 16.2503 10.1595 16.2503 10C16.2503 9.84045 16.2443 9.68218 16.2325 9.52543C16.22 9.358 16.2817 9.2319 16.3606 9.16698L17.061 8.59035C17.6507 8.10489 17.803 7.26426 17.4211 6.60278L16.6528 5.27202C16.2709 4.61054 15.4667 4.32211 14.7515 4.59008L13.902 4.90833C13.8062 4.9442 13.666 4.93453 13.5272 4.83955C13.267 4.66142 12.9926 4.5024 12.706 4.36456C12.554 4.2915 12.4756 4.1747 12.4588 4.07394L12.3099 3.18063C12.1843 2.42721 11.5325 1.875 10.7686 1.875H9.23201ZM10.0004 13.125C11.7263 13.125 13.1254 11.7259 13.1254 10C13.1254 8.27411 11.7263 6.875 10.0004 6.875C8.27454 6.875 6.87543 8.27411 6.87543 10C6.87543 11.7259 8.27454 13.125 10.0004 13.125Z" fill="currentColor" />
</svg>
