<svg width="20" height="20" viewBox="0 0 20 20" fill="currentColor" xmlns="http://www.w3.org/2000/svg">
<path fill-rule="evenodd" clip-rule="evenodd" d="M1.875 11.25C1.875 7.45304 4.95304 4.375 8.75 4.375C9.09518 4.375 9.375 4.65482 9.375 5V10.625H15C15.3452 10.625 15.625 10.9048 15.625 11.25C15.625 15.047 12.547 18.125 8.75 18.125C4.95304 18.125 1.875 15.047 1.875 11.25Z" fill="currentColor" />
<path fill-rule="evenodd" clip-rule="evenodd" d="M10.625 2.5C10.625 2.15482 10.9048 1.875 11.25 1.875C15.047 1.875 18.125 4.95304 18.125 8.75C18.125 9.09518 17.8452 9.375 17.5 9.375H11.25C10.9048 9.375 10.625 9.09518 10.625 8.75V2.5Z" fill="currentColor" />
</svg>
