<svg width="20" height="20" viewBox="0 0 20 20" fill="currentColor" xmlns="http://www.w3.org/2000/svg">
<path d="M9.375 3.77739C8.11212 2.96899 6.61038 2.5 5 2.5C4.05148 2.5 3.13963 2.6628 2.29172 2.96249C2.04198 3.05076 1.875 3.28688 1.875 3.55176V15.4268C1.875 15.6297 1.97348 15.8199 2.13913 15.9371C2.30478 16.0542 2.51699 16.0837 2.70828 16.016C3.42426 15.763 4.19534 15.625 5 15.625C6.66251 15.625 8.18604 16.2144 9.375 17.1964V3.77739Z" fill="currentColor"/>
<path d="M10.625 17.1964C11.814 16.2144 13.3375 15.625 15 15.625C15.8047 15.625 16.5757 15.763 17.2917 16.016C17.483 16.0837 17.6952 16.0542 17.8609 15.9371C18.0265 15.8199 18.125 15.6297 18.125 15.4268V3.55176C18.125 3.28688 17.958 3.05076 17.7083 2.96249C16.8604 2.6628 15.9485 2.5 15 2.5C13.3896 2.5 11.8879 2.96899 10.625 3.77739V17.1964Z" fill="currentColor"/>
</svg>
